<?xml version="1.0" encoding="utf-8"?>
<!-- Generator: Adobe Illustrator 22.1.0, SVG Export Plug-In . SVG Version: 6.00 Build 0)  -->
<svg version="1.1" id="Layer_1" xmlns="http://www.w3.org/2000/svg" xmlns:xlink="http://www.w3.org/1999/xlink" x="0px" y="0px"
	 viewBox="0 0 65 65" style="enable-background:new 0 0 65 65;" xml:space="preserve">
<style type="text/css">
	.st0{fill:#3A3A3A;}
</style>
<path class="st0" d="M61.5,32.5c0.1,16.2-12.9,29.4-29,29.5c-16,0-29-13.3-29-29.6C3.4,16.3,16.4,3.1,32.6,3
	C48.5,3,61.5,16.3,61.5,32.5z M57.9,32.5c-0.2-14-11.8-25.2-25.8-25c-14,0.2-25.2,11.8-25,25.8c0.2,13.9,11.5,25,25.4,25
	C46.6,58.2,58,46.7,57.9,32.5C57.9,32.5,57.9,32.5,57.9,32.5z M20.4,39.8c4.1,0.1,8.1,1.7,11.3,4.4c1.6,1.3,2.9,2.9,3.9,4.7
	c0.6,0.8,0.3,2-0.5,2.6c0,0,0,0-0.1,0c-0.8,0.5-1.9,0.3-2.5-0.6c0,0-0.1-0.1-0.1-0.1c-1.9-3.3-5-5.7-8.7-6.7
	c-1.4-0.3-2.7-0.5-4.1-0.6c-1-0.1-1.7-1-1.6-2c0.1-0.7,0.6-1.4,1.3-1.6C19.7,39.9,20,39.8,20.4,39.8z M25.3,21.5
	c2,0,3.7,1.7,3.7,3.7s-1.7,3.7-3.7,3.7c-2-0.1-3.6-1.7-3.6-3.8C21.7,23.1,23.3,21.5,25.3,21.5L25.3,21.5z M36.1,25.1
	c0-2,1.6-3.7,3.6-3.7c2,0,3.7,1.6,3.7,3.6c0,0.1,0,0.1,0,0.2c0,2-1.6,3.7-3.6,3.7c-2,0-3.7-1.6-3.7-3.6
	C36.1,25.2,36.1,25.2,36.1,25.1z"/>
</svg>
